<?xml version="1.0" standalone="no"?><!DOCTYPE svg PUBLIC "-//W3C//DTD SVG 1.1//EN" "http://www.w3.org/Graphics/SVG/1.1/DTD/svg11.dtd"><svg t="1765689001159" class="icon" viewBox="0 0 1024 1024" version="1.1" xmlns="http://www.w3.org/2000/svg" p-id="1651" width="64" height="64" data-spm-anchor-id="a313x.search_index.0.i7.235a3a81TlLwWD" xmlns:xlink="http://www.w3.org/1999/xlink"><path d="M484.608 166.048l-10.56 11.84-5.92 7.392a256.544 256.544 0 0 0-41.28 234.784l1.216 3.616-288.384 262.144a141.312 141.312 0 0 0-40.032 133.76 143.328 143.328 0 0 0 104.512 104.352 142.752 142.752 0 0 0 135.68-38.72l266.176-286.944-3.968-1.28c85.248 29.6 182.848 10.496 252.704-50.72 71.616-74.784 92.256-181.184 54.848-274.496-7.776-19.456-25.792-32.128-46.08-35.36a61.216 61.216 0 0 0-52.992 17.248l-90.432 87.744-11.712 11.008-35.296-37.184 101.984-100.704 2.176-2.4c11.328-13.728 16.128-31.68 12.992-49.216-3.584-19.968-16.96-35.584-34.976-44.48-86.496-42.72-193.248-22.56-268.256 45.216l-2.4 2.4z m235.648 6.656l4.096 1.92-100.928 99.84c-20.992 24.192-20.992 57.248-1.728 79.584l45.12 47.52 2.432 2.304a59.904 59.904 0 0 0 77.632 0l15.04-13.92 53.12-51.328 37.568-36.64 2.944 8.736a192.32 192.32 0 0 1-45.056 189.376c-50.496 44.128-124 58.496-190.272 35.616-21.92-5.568-38.56-2.24-54.272 12.16l-9.28 9.536-259.424 279.584a78.944 78.944 0 0 1-77.856 24.8 79.04 79.04 0 0 1-57.536-57.248 76.704 76.704 0 0 1 21.632-72.064l290.08-263.616c16.544-14.72 23.36-37.952 17.184-59.584l-2.784-8.256c-19.904-63.616-6.848-131.104 34.624-181.472l8.416-9.408-1.12 0.96c54.4-49.12 129.632-64.704 190.368-38.4z" fill="#ffffff" p-id="1652" data-spm-anchor-id="a313x.search_index.0.i6.235a3a81TlLwWD" class="selected"></path><path d="M224 800m-32 0a32 32 0 1 0 64 0 32 32 0 1 0-64 0Z" fill="#ffffff" p-id="1653"></path></svg>